<?xml version="1.0" encoding="iso-8859-1"?>
<!-- Generator: Adobe Illustrator 18.0.0, SVG Export Plug-In . SVG Version: 6.00 Build 0)  -->
<!DOCTYPE svg PUBLIC "-//W3C//DTD SVG 1.1//EN" "http://www.w3.org/Graphics/SVG/1.1/DTD/svg11.dtd">
<svg version="1.1" id="Capa_1" xmlns="http://www.w3.org/2000/svg" xmlns:xlink="http://www.w3.org/1999/xlink" x="0px" y="0px"
	 viewBox="0 0 304.828 304.828" style="enable-background:new 0 0 304.828 304.828;" xml:space="preserve">
<g>
	<path style="fill:#84BD93;" d="M259.008,181.091H36.97c-3.639,0-6.597,2.868-6.597,6.506c0,0.547,0.074-1.506,0.2,1.494h222.052
		c3.637,0,6.597-2.868,6.597-6.506C259.222,182.035,259.135,181.091,259.008,181.091z"/>
	<g>
		<path style="fill:#84BD93;" d="M75.64,282.454c2.901,3.448,5.244,5.871,6.75,7.34h0C80.884,288.324,78.541,285.902,75.64,282.454z
			"/>
		<path style="fill:#84BD93;" d="M45.868,202.091c15.297,54,39.659,80,46.546,87h104.767c6.887-7,31.249-33,46.547-87H45.868z"/>
	</g>
	<g>
		<path style="fill:#FDD44B;" d="M268.41,107.106l-65.867-65.866l-32.738,79.364c-0.004-0.004-0.01-0.007-0.015-0.011
			c3.931,3.32,7.477,6.993,10.533,11.006c4.107-0.836,8.288-1.259,12.488-1.259c5.093,0,10.095,0.619,14.915,1.799l70.985-29.282
			L268.41,107.106z M197.435,110.972c-1.393,1.393-3.338,2.196-5.311,2.196c-1.985,0-3.92-0.803-5.323-2.196
			c-1.394-1.404-2.195-3.338-2.195-5.311c0-1.985,0.801-3.929,2.195-5.323c1.403-1.403,3.338-2.204,5.323-2.204
			c1.973,0,3.918,0.802,5.311,2.204c1.403,1.394,2.206,3.338,2.206,5.323C199.642,107.635,198.839,109.569,197.435,110.972z
			 M209.252,65.61c-1.403,1.392-3.337,2.194-5.312,2.194c-1.985,0-3.919-0.802-5.313-2.194c-1.402-1.404-2.204-3.338-2.204-5.323
			c0-1.974,0.802-3.909,2.204-5.312c1.394-1.403,3.328-2.194,5.313-2.194c1.974,0,3.919,0.792,5.312,2.194
			c1.403,1.404,2.206,3.338,2.206,5.312C211.458,62.272,210.655,64.206,209.252,65.61z M238.969,103.446
			c-1.393,1.403-3.338,2.205-5.311,2.205c-1.985,0-3.919-0.802-5.323-2.205c-1.394-1.393-2.194-3.328-2.194-5.312
			c0-1.975,0.8-3.909,2.204-5.312c1.393-1.404,3.328-2.205,5.313-2.205c1.973,0,3.918,0.802,5.311,2.205
			c1.404,1.393,2.206,3.336,2.206,5.312C241.175,100.118,240.373,102.053,238.969,103.446z"/>
		<path style="fill:#FDD44B;" d="M164.484,116.491c-0.023-0.016-0.048-0.032-0.072-0.048
			C164.436,116.459,164.46,116.474,164.484,116.491z"/>
	</g>
	<g>
		<path style="fill:#CE593F;" d="M155.819,128.761c0.592,0.418,1.19,0.829,1.764,1.265
			C157.009,129.59,156.411,129.179,155.819,128.761z"/>
		<path style="fill:#CE593F;" d="M145.557,122.838c0.621,0.289,1.239,0.58,1.847,0.885
			C146.796,123.417,146.178,123.126,145.557,122.838z"/>
		<path style="fill:#CE593F;" d="M149.153,124.641c0.61,0.329,1.221,0.656,1.816,1.001
			C150.373,125.297,149.763,124.97,149.153,124.641z"/>
		<path style="fill:#CE593F;" d="M152.58,126.621c0.598,0.37,1.201,0.736,1.783,1.122
			C153.781,127.357,153.179,126.991,152.58,126.621z"/>
		<path style="fill:#CE593F;" d="M177.655,147.618c-0.117,0.009-0.235,0.012-0.352,0.015
			C177.421,147.63,177.537,147.626,177.655,147.618z"/>
		<path style="fill:#CE593F;" d="M158.807,131.009c0.606,0.485,1.221,0.963,1.803,1.469
			C160.028,131.972,159.413,131.494,158.807,131.009z"/>
		<path style="fill:#CE593F;" d="M165.271,137.045c-1.297-1.421-2.674-2.783-4.131-4.079
			C162.597,134.263,163.973,135.624,165.271,137.045z"/>
		<path style="fill:#CE593F;" d="M165.899,137.713c0.516,0.584,0.995,1.194,1.483,1.798
			C166.894,138.908,166.415,138.298,165.899,137.713z"/>
		<path style="fill:#CE593F;" d="M121.212,116.179c0.591,0.063,1.174,0.15,1.76,0.226
			C122.385,116.329,121.803,116.242,121.212,116.179z"/>
		<path style="fill:#CE593F;" d="M125.538,116.76c0.624,0.1,1.24,0.222,1.859,0.336C126.778,116.982,126.163,116.86,125.538,116.76z
			"/>
		<path style="fill:#CE593F;" d="M141.806,121.219c0.632,0.251,1.26,0.508,1.882,0.776
			C143.066,121.728,142.438,121.471,141.806,121.219z"/>
		<path style="fill:#CE593F;" d="M189.286,157.369c-3.218,0.957-6.681-0.339-8.484-3.172c-1.494-2.349-3.194-4.574-5.068-6.675
			c-1.995-0.376-3.81-1.548-4.955-3.347c-0.809-1.272-1.693-2.499-2.616-3.699c-12.003-9.334-28.285-14.53-45.81-14.53
			c-28.255,0-52.349,13.145-61.405,34.145h161.5c-6.066-3-12.724-4.472-19.613-4.472
			C198.25,155.618,193.691,156.061,189.286,157.369z"/>
		<path style="fill:#CE593F;" d="M116.804,115.824c0.501,0.027,0.994,0.079,1.492,0.114
			C117.797,115.903,117.305,115.851,116.804,115.824z"/>
		<path style="fill:#CE593F;" d="M137.919,119.796c0.639,0.214,1.272,0.437,1.902,0.666
			C139.191,120.233,138.558,120.01,137.919,119.796z"/>
		<path style="fill:#CE593F;" d="M133.906,118.575c0.64,0.175,1.272,0.364,1.904,0.555
			C135.179,118.94,134.547,118.751,133.906,118.575z"/>
		<path style="fill:#CE593F;" d="M129.774,117.56c0.636,0.138,1.264,0.293,1.894,0.445
			C131.039,117.853,130.411,117.698,129.774,117.56z"/>
	</g>
	<path style="fill:#3F2D20;" d="M203.94,52.78c-1.985,0-3.919,0.792-5.313,2.195c-1.402,1.403-2.204,3.338-2.204,5.312
		c0,1.985,0.802,3.919,2.204,5.323c1.394,1.393,3.328,2.194,5.313,2.194c1.974,0,3.909-0.802,5.312-2.194
		c1.403-1.404,2.205-3.338,2.205-5.323c0-1.974-0.803-3.908-2.205-5.312C207.859,53.572,205.915,52.78,203.94,52.78z"/>
	<path style="fill:#3F2D20;" d="M238.969,92.822c-1.393-1.403-3.338-2.205-5.311-2.205c-1.985,0-3.919,0.802-5.313,2.205
		c-1.404,1.403-2.204,3.337-2.204,5.312c0,1.984,0.801,3.919,2.195,5.312c1.403,1.403,3.338,2.205,5.323,2.205
		c1.973,0,3.918-0.802,5.311-2.205c1.403-1.393,2.206-3.328,2.206-5.312C241.175,96.158,240.373,94.215,238.969,92.822z"/>
	<path style="fill:#3F2D20;" d="M192.124,98.134c-1.985,0-3.919,0.802-5.323,2.204c-1.394,1.394-2.195,3.338-2.195,5.323
		c0,1.974,0.801,3.908,2.195,5.312c1.403,1.393,3.338,2.196,5.323,2.196c1.973,0,3.918-0.803,5.311-2.196
		c1.403-1.404,2.206-3.338,2.206-5.312c0-1.985-0.803-3.929-2.206-5.323C196.042,98.935,194.097,98.134,192.124,98.134z"/>
	<path style="fill:#3F2D20;" d="M297.309,100.194L199.314,2.2c-1.776-1.775-4.322-2.546-6.787-2.055
		c-2.465,0.492-4.52,2.182-5.477,4.504L145.084,106.39c-10.115-3.711-21.232-5.722-32.754-5.722
		c-41.299,0-75.404,25.86-79.804,58.982h-5.578c-11.928,0-21.631,9.704-21.631,21.631c0,9.467,6.121,17.513,14.606,20.437
		c18.96,71.238,53.273,100.173,54.753,101.394c1.347,1.109,3.036,1.716,4.78,1.716h120.66c1.744,0,3.434-0.607,4.78-1.716
		c1.48-1.221,35.792-30.156,54.755-101.394c8.485-2.926,14.607-10.971,14.607-20.437c0-11.927-9.704-21.631-21.631-21.631h-6.73
		c-4.943-7.796-11.424-14.301-18.932-19.181l67.898-28.01c2.323-0.958,4.012-3.014,4.505-5.477
		C299.858,104.517,299.087,101.971,297.309,100.194z M259.222,181.281c0,3.637-2.96,6.597-6.597,6.597H26.948
		c-3.638,0-6.597-2.96-6.597-6.597c0-3.637,2.959-6.597,6.597-6.597h225.678C256.262,174.684,259.222,177.644,259.222,181.281z
		 M197.181,289.794H82.39c-6.886-6.716-31.249-33.349-46.545-86.881h207.884C228.43,256.444,204.068,283.077,197.181,289.794z
		 M47.735,159.65c4.51-24.808,31.752-43.948,64.594-43.948c24.888,0,47.283,10.91,58.45,28.472c1.803,2.834,5.266,4.129,8.484,3.172
		c4.404-1.308,8.964-1.971,13.548-1.971c12.953,0,25.116,5.267,33.991,14.275H47.735z M192.811,130.341
		c-4.199,0-8.38,0.423-12.487,1.259c-5.711-7.499-13.089-13.854-21.614-18.82l37.942-91.98l82.059,82.058l-70.985,29.283
		C202.907,130.96,197.905,130.341,192.811,130.341z"/>
</g>
<g>
</g>
<g>
</g>
<g>
</g>
<g>
</g>
<g>
</g>
<g>
</g>
<g>
</g>
<g>
</g>
<g>
</g>
<g>
</g>
<g>
</g>
<g>
</g>
<g>
</g>
<g>
</g>
<g>
</g>
</svg>
