<?xml version='1.0' encoding='iso-8859-1'?>
<!DOCTYPE svg PUBLIC '-//W3C//DTD SVG 1.1//EN' 'http://www.w3.org/Graphics/SVG/1.1/DTD/svg11.dtd'>
<svg version="1.1" xmlns="http://www.w3.org/2000/svg" viewBox="0 0 458.62 458.62" xmlns:xlink="http://www.w3.org/1999/xlink" enable-background="new 0 0 458.62 458.62">
  <path d="m343.126,264.461c-13.671-7.385-28.179-9.155-42.223-5.388 6.787-17.621 23.886-30.162 43.869-30.162 5.523,0 10-4.477 10-10s-4.477-10-10-10c-5.251,0-10.355,0.626-15.261,1.774-1.995-12.338-7.773-23.713-16.784-32.724-11.333-11.333-26.4-17.574-42.426-17.573-5.523,0-10,4.477-10,10 0,25.748 16.305,47.754 39.13,56.25-9.71,8.942-16.766,20.71-19.878,33.984-7.372-2.682-14.918-3.809-22.443-3.375v-128.466c0-2.582-0.999-5.063-2.787-6.926l-82.57-86.004v-25.851c0-5.523-4.477-10-10-10s-10,4.477-10,10v25.844l-82.567,86.012c-1.788,1.862-2.786,4.344-2.786,6.925v292.34c0,5.523 4.477,10 10,10h140.823c18.599,17.066 43.378,27.499 70.55,27.499 57.593,0 104.448-46.855 104.448-104.448-0.001-36.614-20.648-74.342-49.095-89.711zm-61.077-82.314c12.626,3.886 22.606,13.866 26.492,26.493-6.173-1.89-11.83-5.273-16.524-9.968-4.695-4.694-8.079-10.351-9.968-16.525zm-120.299-127.836l61.9,64.475h-123.792l61.892-64.475zm-75.35,84.474h150.71v123.381c-1.573,0.694-3.138,1.456-4.691,2.295-28.447,15.368-49.095,53.097-49.095,89.711 0,20.994 6.232,40.558 16.934,56.949h-113.858v-272.336zm201.372,299.835c-46.564,0-84.448-37.883-84.448-84.448 0-29.224 16.595-60.226 38.601-72.114 6.104-3.297 12.234-4.945 18.355-4.945 7.37,0 14.727,2.389 22.01,7.162 3.329,2.182 7.635,2.182 10.964,0 13.332-8.738 26.913-9.484 40.366-2.217 22.005,11.888 38.6,42.891 38.6,72.114 0,46.565-37.883,84.448-84.448,84.448z"/>
</svg>
