<?xml version="1.0" encoding="iso-8859-1"?>
<!-- Generator: Adobe Illustrator 19.0.0, SVG Export Plug-In . SVG Version: 6.00 Build 0)  -->
<svg version="1.1" id="Layer_1" xmlns="http://www.w3.org/2000/svg" xmlns:xlink="http://www.w3.org/1999/xlink" x="0px" y="0px"
	 viewBox="0 0 512 512" style="enable-background:new 0 0 512 512;" xml:space="preserve">
<path style="fill:#4693BD;" d="M463.991,175.562v253.689c0,4.661,3.778,8.44,8.44,8.44s8.44-3.779,8.44-8.44V175.562H463.991z"/>
<circle style="fill:#ADD9FF;" cx="209.054" cy="256" r="209.054"/>
<path style="fill:#E4F2FF;" d="M210.695,100.292c-0.545-0.008-1.089-0.017-1.643-0.017s-1.098,0.009-1.643,0.017
	C122.154,101.164,53.328,170.543,53.328,256s68.826,154.836,154.082,155.708c0.545,0.008,1.089,0.017,1.643,0.017
	s1.098-0.009,1.643-0.017c69.606-1.074,137.011-70.377,137.011-155.708S280.3,101.366,210.695,100.292z"/>
<ellipse style="fill:#4693BD;" cx="472.435" cy="140.412" rx="39.565" ry="57.659"/>
<path style="fill:#ED2F49;" d="M254.697,166.559c-2.586,0-5.121,0.194-7.599,0.559l-38.05,198.578l87.325-115.422
	c6.624-8.755,10.556-19.66,10.556-31.484C306.929,189.943,283.544,166.559,254.697,166.559z"/>
<path style="fill:#FF455E;" d="M247.099,167.118c-16.609,2.454-30.513,12.836-38.05,27.188
	c-7.537-14.352-21.441-24.734-38.05-27.188c-2.477-0.366-5.013-0.559-7.599-0.559c-28.846,0-52.232,23.384-52.232,52.232
	c0,11.826,3.932,22.729,10.556,31.484l87.325,115.422l62.375-115.422c4.732-8.755,7.539-19.66,7.539-31.484
	C278.964,192.533,265.123,170.808,247.099,167.118z"/>
<path style="fill:#C8E6FF;" d="M210.695,100.292c85.247,0.872,154.073,70.251,154.073,155.708s-68.826,154.836-154.073,155.708
	c69.606-1.072,125.758-70.377,125.758-155.708S280.3,101.365,210.695,100.292z"/>
<g>
</g>
<g>
</g>
<g>
</g>
<g>
</g>
<g>
</g>
<g>
</g>
<g>
</g>
<g>
</g>
<g>
</g>
<g>
</g>
<g>
</g>
<g>
</g>
<g>
</g>
<g>
</g>
<g>
</g>
</svg>
