<?xml version="1.0" encoding="utf-8"?>
<!-- Generator: Adobe Illustrator 21.1.0, SVG Export Plug-In . SVG Version: 6.00 Build 0)  -->
<svg version="1.1" id="master-artboard" xmlns="http://www.w3.org/2000/svg" xmlns:xlink="http://www.w3.org/1999/xlink" x="0px"
	 y="0px" viewBox="0 0 1852.4 1548.1" style="enable-background:new 0 0 1852.4 1548.1;" xml:space="preserve">
<style type="text/css">
	.st0{fill:#FFFFFF;stroke:#000000;stroke-width:6;stroke-miterlimit:10;}
	.st1{opacity:0.1;fill:url(#SVGID_1_);enable-background:new    ;}
	.st2{fill:#E6E7E8;}
	.st3{opacity:7.000000e-02;fill:url(#SVGID_2_);enable-background:new    ;}
	.st4{fill:#F1F2F2;}
	.st5{opacity:0.1;fill:url(#SVGID_7_);enable-background:new    ;}
	.st6{fill:#FFFFFF;}
	.st7{opacity:0.1;fill:url(#SVGID_8_);enable-background:new    ;}
	.st8{opacity:0.6;fill:url(#SVGID_9_);enable-background:new    ;}
</style>
<g>
	<path class="st0" d="M1346.5,922.2c0,284.1-230.3,514.3-514.3,514.3c-284.1,0-514.3-230.3-514.3-514.3
		c0-284.1,230.3-514.3,514.3-514.3C1116.2,407.8,1346.5,638.1,1346.5,922.2z"/>
</g>
<linearGradient id="SVGID_1_" gradientUnits="userSpaceOnUse" x1="1408.8999" y1="-309.8999" x2="1039.6" y2="59.4001" gradientTransform="matrix(1 0 0 -1 -212.9676 976.0299)">
	<stop  offset="0" style="stop-color:#000000"/>
	<stop  offset="8.962709e-02" style="stop-color:#000000;stop-opacity:0.9104"/>
	<stop  offset="1" style="stop-color:#000000;stop-opacity:0"/>
</linearGradient>
<path class="st1" d="M1184.7,1274.7c-199,199-520.4,200.8-721.7,5.5c1.8,1.9,3.6,3.8,5.5,5.7c200.9,200.9,526.5,200.9,727.4,0
	s200.9-526.5,0-727.4c-1.9-1.9-3.8-3.7-5.6-5.5C1385.5,754.2,1383.7,1075.7,1184.7,1274.7z"/>
<g>
	<path class="st2" d="M1384.1,623.9c0-109.6,40-177.2,62.5-177.2c15.8,0,18,8,18,21.2c0,13.2-11.1,157.3-11.1,329.9
		c0,123.6,16.1,429.8,15,430.9c-4.9,4.9-16.7,7.3-28.4,7.2c-11.7,0.1-23.5-2.3-28.4-7.2c-0.7-0.7,5.8-337,5.8-354.6
		C1417.4,809,1384.1,786.1,1384.1,623.9z"/>
	
		<linearGradient id="SVGID_2_" gradientUnits="userSpaceOnUse" x1="1603" y1="312.1501" x2="1677.6" y2="312.1501" gradientTransform="matrix(1 0 0 -1 -212.9676 976.0299)">
		<stop  offset="0" style="stop-color:#000000"/>
		<stop  offset="8.962709e-02" style="stop-color:#000000;stop-opacity:0.9104"/>
		<stop  offset="1" style="stop-color:#000000;stop-opacity:0"/>
	</linearGradient>
	<path class="st3" d="M1454.9,880.2c-0.9-31.5-1.4-59.9-1.4-82.3c0-172.6,11.1-316.8,11.1-329.9c0-10.5-1.4-17.7-10-20.2
		c-0.7-0.1-1.3-0.2-2.1-0.3c-37.2,15-62.5,90.4-62.5,191.9C1390,754.9,1426.4,861.1,1454.9,880.2z"/>
</g>
<g>
	<path class="st2" d="M296.9,633.6c0-75.7-2.8-107.9-2.8-107.9h-12.8l-1.1,137.1c0,4.2-3.9,7.6-8.1,7.6c-4.2,0-8.1-3.4-8.1-7.6
		l-1.1-137.1h-13.1l-1.1,144.5c0,4.2-4.5,7.6-8.7,7.6c-4.2,0-8.7-3.4-8.7-7.6l-1.1-144.5h-13.1L216,662.8c0,4.2-3.9,7.6-8.1,7.6
		c-4.2,0-8.1-3.4-8.1-7.6l-1.1-137.1H186c0,0-2.8,32.2-2.8,107.9c0,103.3,43.5,96.4,43.5,164.3c0,1.5-16.1,429.8-15,430.9
		c4.9,4.9,16.7,7.3,28.4,7.2c11.7,0.1,23.5-2.3,28.4-7.2c1.1-1.1-15-429.4-15-430.9C253.5,730,296.9,736.9,296.9,633.6"/>
	<g>
		<defs>
			<path id="SVGID_3_" d="M198.9,537.1c0,0-0.1,0.1-0.1,0.1l1,125.6c0,4.2,3.9,7.6,8.1,7.6c0,0,0,0,0.1,0c-4.2,0-8-3.4-8-7.6
				L198.9,537.1 M230.3,534.3l1,135.9c0,4.2,4.5,7.6,8.7,7.6c0,0,0,0,0.1,0c-4.2,0-8.6-3.4-8.6-7.6l-1-135.9
				C230.4,534.3,230.3,534.3,230.3,534.3 M263.1,533c0,0-0.1,0-0.1,0l1,129.8c0,4.2,3.9,7.6,8.1,7.6c0,0,0,0,0.1,0
				c-4.2,0-8.1-3.4-8.1-7.6L263.1,533"/>
		</defs>
		<clipPath id="SVGID_4_">
			<use xlink:href="#SVGID_3_"  style="overflow:visible;"/>
		</clipPath>
	</g>
	<g>
		<defs>
			<path id="SVGID_5_" d="M217.1,533l-1,129.8c0,4.2-3.9,7.6-8.1,7.6c0,0,0,0-0.1,0c0,0,0,0-0.1,0c-4.2,0-8.1-3.4-8.1-7.6l-1-125.6
				c-8,9.6-9.1,37.9-9.1,114.8c0,42.8,22.3,92.9,50.4,92.9c28.1,0,50.4-50.1,50.4-92.9c0-77.2-1-105.4-9.2-114.9l-1,125.7
				c0,4.2-3.9,7.6-8.1,7.6c0,0,0,0-0.1,0c0,0,0,0-0.1,0c-4.2,0-8.1-3.4-8.1-7.6L263,533c-3.9,0.4-8.2,0.9-13.2,1.3l-1,135.9
				c0,4.2-4.5,7.6-8.7,7.6c0,0,0,0-0.1,0c0,0,0,0-0.1,0c-4.2,0-8.7-3.4-8.7-7.6l-1-135.9C225.4,533.9,221,533.4,217.1,533"/>
		</defs>
		<clipPath id="SVGID_6_">
			<use xlink:href="#SVGID_5_"  style="overflow:visible;"/>
		</clipPath>
	</g>
</g>
<g>
	<g transform="matrix(1, 0, 0, 1, -348.8611755371094, -490.83958435058594)">
		<path class="st4" d="M1745.9,788.4c0,93-75.4,168.4-168.4,168.4s-168.4-75.4-168.4-168.4S1484.5,620,1577.5,620
			S1745.9,695.4,1745.9,788.4z"/>
		
			<linearGradient id="SVGID_7_" gradientUnits="userSpaceOnUse" x1="2045.3512" y1="1131.3792" x2="1876.9698" y2="1299.7604" gradientTransform="matrix(1 0 0 -1 -348.8612 2038.8396)">
			<stop  offset="0" style="stop-color:#000000"/>
			<stop  offset="8.962709e-02" style="stop-color:#000000;stop-opacity:0.9104"/>
			<stop  offset="1" style="stop-color:#000000;stop-opacity:0"/>
		</linearGradient>
		<path class="st5" d="M1696.5,669.4c65.8,65.8,65.8,172.4,0,238.1c-65.8,65.8-172.4,65.8-238.1,0
			C1392.6,841.7,1630.8,603.6,1696.5,669.4z"/>
		<path class="st6" d="M1704.5,788.4c0,70.1-56.9,127-127,127s-127-56.9-127-127s56.9-127,127-127S1704.5,718.2,1704.5,788.4z"/>
		<path class="st4" d="M1693.1,788.4c0,63.8-51.8,115.6-115.6,115.6s-115.6-51.8-115.6-115.6s51.8-115.6,115.6-115.6
			S1693.1,724.5,1693.1,788.4z"/>
	</g>
	
		<linearGradient id="SVGID_8_" gradientUnits="userSpaceOnUse" x1="1495.6899" y1="841.3396" x2="1611.2711" y2="725.7584" gradientTransform="matrix(1 0 0 -1 -348.8612 1057.1604)">
		<stop  offset="0" style="stop-color:#000000"/>
		<stop  offset="8.962709e-02" style="stop-color:#000000;stop-opacity:0.9104"/>
		<stop  offset="1" style="stop-color:#000000;stop-opacity:0"/>
	</linearGradient>
	<path class="st7" d="M1146.8,379.2c-45.1-45.1-45.1-118.3,0-163.4c45.1-45.1,118.3-45.1,163.4,0
		C1355.4,260.9,1192,424.4,1146.8,379.2z"/>
</g>
<linearGradient id="SVGID_9_" gradientUnits="userSpaceOnUse" x1="749.5" y1="349.4999" x2="1049.7001" y2="49.3" gradientTransform="matrix(1 0 0 -1 -212.9676 976.0299)">
	<stop  offset="0" style="stop-color:#FFFFFF"/>
	<stop  offset="8.962709e-02" style="stop-color:#FFFFFF;stop-opacity:0.9104"/>
	<stop  offset="1" style="stop-color:#FFFFFF;stop-opacity:0"/>
</linearGradient>
<path class="st8" d="M545.6,635.6c161.8-161.8,423.1-163.2,586.7-4.5c-1.5-1.5-3-3.1-4.5-4.6c-163.3-163.3-428-163.3-591.3,0
	s-163.3,428,0,591.3c1.5,1.5,3.1,3,4.6,4.5C382.3,1058.7,383.8,797.4,545.6,635.6z"/>
</svg>
