<?xml version="1.0" encoding="iso-8859-1"?>
<!-- Generator: Adobe Illustrator 18.0.0, SVG Export Plug-In . SVG Version: 6.00 Build 0)  -->
<!DOCTYPE svg PUBLIC "-//W3C//DTD SVG 1.1//EN" "http://www.w3.org/Graphics/SVG/1.1/DTD/svg11.dtd">
<svg version="1.1" id="Capa_1" xmlns="http://www.w3.org/2000/svg" xmlns:xlink="http://www.w3.org/1999/xlink" x="0px" y="0px"
	 viewBox="0 0 297 297" style="enable-background:new 0 0 297 297;" xml:space="preserve">
<g>
	<path d="M10.458,77.91C4.682,77.91,0,82.593,0,88.368v120.264c0,5.775,4.682,10.458,10.458,10.458s10.458-4.682,10.458-10.458
		V88.368C20.915,82.593,16.233,77.91,10.458,77.91z"/>
	<path d="M44.968,77.91c-5.775,0-10.458,4.682-10.458,10.458v77.387c0,5.775,4.682,10.458,10.458,10.458s10.458-4.682,10.458-10.458
		V88.368C55.426,82.593,50.744,77.91,44.968,77.91z"/>
	<path d="M79.479,77.91c-5.775,0-10.458,4.682-10.458,10.458v77.387c0,5.775,4.682,10.458,10.458,10.458
		c5.775,0,10.458-4.682,10.458-10.458V88.368C89.937,82.593,85.254,77.91,79.479,77.91z"/>
	<path d="M113.989,77.91c-5.775,0-10.458,4.682-10.458,10.458v77.387c0,5.775,4.682,10.458,10.458,10.458
		c5.775,0,10.458-4.682,10.458-10.458V88.368C124.447,82.593,119.765,77.91,113.989,77.91z"/>
	<path d="M148.5,77.91c-5.775,0-10.458,4.682-10.458,10.458v77.387c0,5.775,4.682,10.458,10.458,10.458s10.458-4.682,10.458-10.458
		V88.368C158.958,82.593,154.275,77.91,148.5,77.91z"/>
	<path d="M183.011,77.91c-5.775,0-10.458,4.682-10.458,10.458v77.387c0,5.775,4.683,10.458,10.458,10.458
		c5.775,0,10.458-4.682,10.458-10.458V88.368C193.468,82.593,188.786,77.91,183.011,77.91z"/>
	<path d="M217.521,77.91c-5.775,0-10.458,4.682-10.458,10.458v77.387c0,5.775,4.682,10.458,10.458,10.458
		c5.775,0,10.458-4.682,10.458-10.458V88.368C227.979,82.593,223.296,77.91,217.521,77.91z"/>
	<path d="M252.032,77.91c-5.775,0-10.458,4.682-10.458,10.458v77.387c0,5.775,4.682,10.458,10.458,10.458
		s10.458-4.682,10.458-10.458V88.368C262.489,82.593,257.807,77.91,252.032,77.91z"/>
	<path d="M44.968,189.808c-5.775,0-10.458,4.682-10.458,10.458v8.366c0,5.775,4.682,10.458,10.458,10.458
		s10.458-4.682,10.458-10.458v-8.366C55.426,194.491,50.744,189.808,44.968,189.808z"/>
	<path d="M79.479,189.808c-5.775,0-10.458,4.682-10.458,10.458v8.366c0,5.775,4.682,10.458,10.458,10.458
		c5.775,0,10.458-4.682,10.458-10.458v-8.366C89.937,194.491,85.254,189.808,79.479,189.808z"/>
	<path d="M113.989,189.808c-5.775,0-10.458,4.682-10.458,10.458v8.366c0,5.775,4.682,10.458,10.458,10.458
		c5.775,0,10.458-4.682,10.458-10.458v-8.366C124.447,194.491,119.765,189.808,113.989,189.808z"/>
	<path d="M148.5,189.808c-5.775,0-10.458,4.682-10.458,10.458v8.366c0,5.775,4.682,10.458,10.458,10.458s10.458-4.682,10.458-10.458
		v-8.366C158.958,194.491,154.275,189.808,148.5,189.808z"/>
	<path d="M183.011,189.808c-5.775,0-10.458,4.682-10.458,10.458v8.366c0,5.775,4.683,10.458,10.458,10.458
		c5.775,0,10.458-4.682,10.458-10.458v-8.366C193.468,194.491,188.786,189.808,183.011,189.808z"/>
	<path d="M217.521,189.808c-5.775,0-10.458,4.682-10.458,10.458v8.366c0,5.775,4.682,10.458,10.458,10.458
		c5.775,0,10.458-4.682,10.458-10.458v-8.366C227.979,194.491,223.296,189.808,217.521,189.808z"/>
	<path d="M252.032,189.808c-5.775,0-10.458,4.682-10.458,10.458v8.366c0,5.775,4.682,10.458,10.458,10.458
		s10.458-4.682,10.458-10.458v-8.366C262.489,194.491,257.807,189.808,252.032,189.808z"/>
	<path d="M286.542,77.91c-5.775,0-10.458,4.682-10.458,10.458v120.264c0,5.775,4.682,10.458,10.458,10.458
		c5.775,0,10.458-4.682,10.458-10.458V88.368C297,82.593,292.318,77.91,286.542,77.91z"/>
</g>
<g>
</g>
<g>
</g>
<g>
</g>
<g>
</g>
<g>
</g>
<g>
</g>
<g>
</g>
<g>
</g>
<g>
</g>
<g>
</g>
<g>
</g>
<g>
</g>
<g>
</g>
<g>
</g>
<g>
</g>
</svg>
