<?xml version="1.0" encoding="iso-8859-1"?>
<!-- Generator: Adobe Illustrator 19.0.0, SVG Export Plug-In . SVG Version: 6.00 Build 0)  -->
<svg version="1.1" id="Layer_1" xmlns="http://www.w3.org/2000/svg" xmlns:xlink="http://www.w3.org/1999/xlink" x="0px" y="0px"
	 viewBox="0 0 512 512" style="enable-background:new 0 0 512 512;" xml:space="preserve">
<path style="fill:#C66500;" d="M496.318,127.692c-0.466-12.776-4.481-24.641-11.099-34.641
	c-24.091-41.085-90.395-85.447-229.22-85.447S50.871,51.966,26.779,93.051c-6.617,10-10.632,21.865-11.099,34.641
	c-0.039,0.843-0.064,1.677-0.064,2.499c0,29.098,18.44,53.888,44.271,63.326c6.517,2.593,13.488,4.075,20.746,4.075v306.805h350.731
	V197.591c7.257,0,14.229-1.481,20.746-4.075c25.832-9.438,44.271-34.228,44.271-63.326
	C496.382,129.37,496.356,128.534,496.318,127.692z"/>
<path style="fill:#F6A230;" d="M111.049,233.352v-66.177H80.633c-3.104,0-6.3-0.646-9.501-1.919l-0.401-0.16l-0.406-0.148
	c-14.531-5.308-24.293-19.277-24.293-34.756c0-0.364,0.014-0.734,0.031-1.107l0.012-0.282c0.247-6.782,2.345-13.34,6.067-18.964
	l0.455-0.689l0.418-0.712c7.341-12.521,23.291-30.606,57.579-45.668c37.387-16.423,86.308-24.749,145.404-24.749
	s108.017,8.327,145.403,24.748c34.288,15.061,50.238,33.147,57.579,45.668l0.418,0.712l0.455,0.689
	c3.722,5.624,5.82,12.183,6.067,18.964l0.012,0.282c0.017,0.373,0.031,0.743,0.031,1.107c0,15.481-9.762,29.449-24.293,34.756
	l-0.406,0.148l-0.401,0.16c-3.201,1.273-6.397,1.919-9.501,1.919h-30.416V473.98H111.049V253.632"/>
<g>
	<path style="fill:#53180F;" d="M503.917,127.415c-0.5-13.701-4.733-26.97-12.242-38.386c-10.224-17.358-31.52-41.978-74.982-61.07
		C374.457,9.407,320.391,0,255.999,0S137.541,9.407,95.306,27.958C51.844,47.05,30.548,71.67,20.324,89.029
		c-7.51,11.416-11.743,24.684-12.239,38.315c-0.044,0.96-0.071,1.911-0.071,2.848c0,31.349,19.752,59.638,49.166,70.432
		c5.2,2.059,10.506,3.43,15.851,4.098V512H438.97V204.721c5.344-0.668,10.651-2.039,15.851-4.098
		c29.414-10.793,49.166-39.083,49.166-70.432C503.985,129.254,503.957,128.304,503.917,127.415z M449.5,186.374l-0.201,0.077
		c-5.896,2.346-11.93,3.535-17.934,3.535h-7.604v306.806H88.237V189.987h-7.604c-6.005,0-12.039-1.189-17.934-3.535l-0.201-0.077
		c-23.493-8.583-39.277-31.161-39.277-56.183c0-0.707,0.021-1.425,0.059-2.221c0.399-10.975,3.804-21.598,9.842-30.722l0.218-0.35
		c14.401-24.563,64.928-81.691,222.659-81.691s208.258,57.128,222.66,81.69l0.218,0.35c6.038,9.124,9.442,19.747,9.845,30.793
		c0.033,0.725,0.056,1.444,0.056,2.15C488.778,155.213,472.993,177.791,449.5,186.374z"/>
	<path style="fill:#53180F;" d="M473.521,128.525c-0.299-8.18-2.832-16.094-7.323-22.88l-0.657-1.054
		c-7.91-13.489-24.927-32.903-61.08-48.784c-38.356-16.848-88.306-25.391-148.462-25.391s-110.105,8.543-148.462,25.39
		c-36.153,15.881-53.17,35.296-61.078,48.781l-0.657,1.054c-4.493,6.789-7.026,14.703-7.323,22.84l-0.01,0.239
		c-0.023,0.495-0.041,0.985-0.041,1.469c0,18.661,11.77,35.5,29.284,41.897l0.609,0.233c4.1,1.63,8.242,2.458,12.312,2.458h22.812
		v58.573h15.208v-73.779h-38.02c-2.136,0-4.388-0.464-6.677-1.375l-1.022-0.391c-11.543-4.216-19.298-15.314-19.298-27.614
		c0-0.244,0.011-0.493,0.024-0.787l0.014-0.324c0.196-5.386,1.859-10.588,4.812-15.049l1.089-1.748
		c6.774-11.552,21.652-28.31,54.078-42.553c36.416-15.997,84.308-24.108,142.344-24.108s105.928,8.111,142.344,24.107
		c32.425,14.243,47.305,31.001,54.08,42.555l1.089,1.749c2.95,4.457,4.614,9.66,4.812,15.088l0.014,0.324
		c0.012,0.251,0.022,0.5,0.022,0.744c0,12.3-7.755,23.398-19.302,27.616l-1.005,0.384c-2.302,0.916-4.553,1.38-6.69,1.38h-38.02
		v306.806h-15.211v-96.824h-15.208v96.824h-15.211v-56.265h-15.208v56.265H118.652V253.632h-15.208v227.953h305.107V174.78h22.812
		c4.071,0,8.212-0.826,12.324-2.463l0.592-0.227c17.518-6.399,29.288-23.238,29.288-41.899c0-0.485-0.017-0.974-0.039-1.426
		L473.521,128.525z"/>
</g>
<g>
</g>
<g>
</g>
<g>
</g>
<g>
</g>
<g>
</g>
<g>
</g>
<g>
</g>
<g>
</g>
<g>
</g>
<g>
</g>
<g>
</g>
<g>
</g>
<g>
</g>
<g>
</g>
<g>
</g>
</svg>
