<?xml version="1.0" encoding="iso-8859-1"?>
<!-- Generator: Adobe Illustrator 19.0.0, SVG Export Plug-In . SVG Version: 6.00 Build 0)  -->
<svg version="1.1" id="Layer_1" xmlns="http://www.w3.org/2000/svg" xmlns:xlink="http://www.w3.org/1999/xlink" x="0px" y="0px"
	 viewBox="0 0 512 512" style="enable-background:new 0 0 512 512;" xml:space="preserve">
<path style="fill:#F7C592;" d="M378.435,122.435c0,9.22-7.475,16.696-16.696,16.696h-0.146
	c-1.073,20.683-8.093,39.789-19.376,55.652h-0.791v22.261H169.783v-22.261c-11.283-15.863-18.303-34.97-19.376-55.652h-0.146
	c-9.22,0-16.696-7.475-16.696-16.696s7.475-16.696,16.696-16.696h3.708C166.185,60.842,207.233,27.826,256,27.826
	s89.815,33.016,102.032,77.913h3.708C370.96,105.739,378.435,113.214,378.435,122.435z"/>
<path style="fill:#DBA87B;" d="M325.603,164.422c-8.766,30.983-37.389,52.621-69.603,52.621s-60.837-21.639-69.603-52.621
	c-1.674-5.915,1.764-12.067,7.679-13.741c5.916-1.675,12.067,1.764,13.741,7.679c6.068,21.445,25.882,36.422,48.184,36.422
	s42.115-14.977,48.184-36.422c1.674-5.916,7.828-9.355,13.741-7.679C323.839,152.354,327.277,158.507,325.603,164.422z"/>
<path style="fill:#967A56;" d="M267.13,11.13v33.391c0,6.147-4.983,11.13-11.13,11.13s-11.13-4.983-11.13-11.13V11.13
	C244.87,4.983,249.853,0,256,0S267.13,4.983,267.13,11.13z"/>
<path style="fill:#665A4B;" d="M243.757,94.609c0,6.147-4.983,11.13-11.13,11.13H230.4c-6.147,0-11.13-4.983-11.13-11.13
	c0-6.147,4.983-11.13,11.13-11.13h2.226C238.773,83.478,243.757,88.461,243.757,94.609z M281.6,83.478h-2.226
	c-6.147,0-11.13,4.983-11.13,11.13c0,6.147,4.983,11.13,11.13,11.13h2.226c6.147,0,11.13-4.983,11.13-11.13
	C292.73,88.461,287.747,83.478,281.6,83.478z"/>
<path style="fill:#FFDB80;" d="M512,211.478v278.261c0,12.295-9.966,22.261-22.261,22.261H22.261C9.966,512,0,502.034,0,489.739
	V211.478c0-12.295,9.966-22.261,22.261-22.261h56.054h355.369h56.055C502.034,189.217,512,199.184,512,211.478z"/>
<path style="fill:#FFEB99;" d="M489.739,189.217h-56.054H78.315H22.261C9.966,189.217,0,199.184,0,211.478v278.261
	C0,502.034,9.966,512,22.261,512h467.478c12.295,0,22.261-9.966,22.261-22.261V211.478C512,199.184,502.034,189.217,489.739,189.217
	z M489.739,489.739H22.261V211.478h467.478V489.739z"/>
<path style="fill:#DB5E49;" d="M463.583,306.087v22.261c0,20.707-14.21,38.157-33.391,43.113v23.67c0,6.147-4.983,11.13-11.13,11.13
	s-11.13-4.983-11.13-11.13v-23.67c-19.181-4.955-33.391-22.406-33.391-43.113v-22.261c0-6.147,4.983-11.13,11.13-11.13
	c6.147,0,11.13,4.983,11.13,11.13v22.261c0,12.275,9.986,22.261,22.261,22.261s22.261-9.986,22.261-22.261v-22.261
	c0-6.147,4.983-11.13,11.13-11.13C458.6,294.957,463.583,299.94,463.583,306.087z M361.183,372.87
	c0,18.412-14.979,33.391-33.391,33.391H283.27c-6.147,0-11.13-4.983-11.13-11.13v-44.522v-44.522c0-6.147,4.983-11.13,11.13-11.13
	h33.391c18.412,0,33.391,14.979,33.391,33.391c0,5.953-1.573,11.541-4.314,16.386C355.015,350.672,361.183,361.061,361.183,372.87z
	 M294.4,339.478h22.261c6.137,0,11.13-4.993,11.13-11.13s-4.993-11.13-11.13-11.13H294.4V339.478z M338.922,372.87
	c0-6.137-4.993-11.13-11.13-11.13H294.4V384h33.391C333.929,384,338.922,379.007,338.922,372.87z M137.461,372.87
	c0,18.412-14.979,33.391-33.391,33.391H59.548c-6.147,0-11.13-4.983-11.13-11.13v-44.522v-44.522c0-6.147,4.983-11.13,11.13-11.13
	h33.391c18.412,0,33.391,14.979,33.391,33.391c0,5.953-1.573,11.541-4.314,16.386C131.293,350.672,137.461,361.061,137.461,372.87z
	 M70.678,339.478h22.261c6.137,0,11.13-4.993,11.13-11.13s-4.993-11.13-11.13-11.13H70.678V339.478z M115.2,372.87
	c0-6.137-4.993-11.13-11.13-11.13H70.678V384h33.391C110.207,384,115.2,379.007,115.2,372.87z M246.539,339.478v55.652
	c0,6.147-4.983,11.13-11.13,11.13c-6.147,0-11.13-4.983-11.13-11.13V372.87h-44.522v22.261c0,6.147-4.983,11.13-11.13,11.13
	c-6.147,0-11.13-4.983-11.13-11.13v-55.652c0-24.549,19.972-44.522,44.522-44.522S246.539,314.929,246.539,339.478z
	 M224.278,339.478c0-12.275-9.986-22.261-22.261-22.261s-22.261,9.986-22.261,22.261v11.13h44.522V339.478z"/>
<path style="fill:#DBA87B;" d="M178.087,200.348L178.087,200.348c0,21.515-17.441,38.957-38.957,38.957H128
	c-21.515,0-38.957-17.441-38.957-38.957l0,0c0-21.515,17.441-38.957,38.957-38.957h11.13
	C160.646,161.391,178.087,178.833,178.087,200.348z M384,161.391h-11.13c-21.515,0-38.957,17.441-38.957,38.957l0,0
	c0,21.515,17.441,38.957,38.957,38.957H384c21.515,0,38.957-17.441,38.957-38.957l0,0C422.957,178.833,405.515,161.391,384,161.391z
	"/>
<g>
</g>
<g>
</g>
<g>
</g>
<g>
</g>
<g>
</g>
<g>
</g>
<g>
</g>
<g>
</g>
<g>
</g>
<g>
</g>
<g>
</g>
<g>
</g>
<g>
</g>
<g>
</g>
<g>
</g>
</svg>
